C:\Users\movea\Dropbox\PhDWork\ExperimentalData\subject1\100\P1S100W01_filtered35.mot
nRows=15
nColumns=28

name C:\Users\movea\Dropbox\PhDWork\ExperimentalData\subject1\100\P1S100W01_filtered35.mot
datacolumns 28
datarows 15
range 1.2300000000 1.2440000000
endheader
time	ground_force_1_vx	ground_force_1_vy	ground_force_1_vz	ground_force_1_px	ground_force_1_py	ground_force_1_pz	ground_moment_1_mx	ground_moment_1_my	ground_moment_1_mz	ground_force_2_vx	ground_force_2_vy	ground_force_2_vz	ground_force_2_px	ground_force_2_py	ground_force_2_pz	ground_moment_2_mx	ground_moment_2_my	ground_moment_2_mz	ground_force_3_vx	ground_force_3_vy	ground_force_3_vz	ground_force_3_px	ground_force_3_py	ground_force_3_pz	ground_moment_3_mx	ground_moment_3_my	ground_moment_3_mz
        1.2300000000	       -0.0000000000	        0.0000000000	       -0.0000000000	        0.2000000000	        0.0000000000	       -0.9030000000	       -0.0000000000	       -0.0000000000	        0.0000000000	        9.5776271855	      485.9144345089	      137.8943496093	        0.2000000000	        0.0000000000	       -0.3000000000	     -105.0087566806	        7.9138932401	      -15.5815218387	        5.4187450198	      486.3851679390	      -94.5438890290	        0.2000000000	       -0.0000000000	        0.3030000000	      -64.4337343133	        9.6587394650	       44.3284906391	
        1.2310000000	       -0.0000000000	        0.0000000000	       -0.0000000000	        0.2000000000	        0.0000000000	       -0.9030000000	       -0.0000000000	       -0.0000000000	        0.0000000000	        8.8326639984	      476.7410390932	      136.8424783869	        0.2000000000	        0.0000000000	       -0.3000000000	     -103.2002623809	        7.7158244959	      -15.2624189334	        4.1628758793	      492.6255657784	      -95.9704024168	        0.2000000000	       -0.0000000000	        0.3030000000	      -65.5616301900	        9.5673678372	       45.0378227736	
        1.2320000000	       -0.0000000000	        0.0000000000	       -0.0000000000	        0.2000000000	        0.0000000000	       -0.9030000000	       -0.0000000000	       -0.0000000000	        0.0000000000	        8.0930995471	      467.4071166844	      135.7428582070	        0.2000000000	        0.0000000000	       -0.3000000000	     -101.3502938980	        7.5169643335	      -14.9403287203	        2.8435080954	      498.6489380997	      -97.5112087235	        0.2000000000	       -0.0000000000	        0.3030000000	      -66.6659729701	        9.4774794816	       45.7302165439	
        1.2330000000	       -0.0000000000	        0.0000000000	       -0.0000000000	        0.2000000000	        0.0000000000	       -0.9030000000	       -0.0000000000	       -0.0000000000	        0.0000000000	        7.3597399452	      457.9061913609	      134.5964147467	        0.2000000000	        0.0000000000	       -0.3000000000	      -99.4588513399	        7.3167742884	      -14.6147309324	        1.4673789810	      504.4566485334	      -99.1584203002	        0.2000000000	       -0.0000000000	        0.3030000000	      -67.7460361653	        9.3898638275	       46.4042726821	
        1.2340000000	       -0.0000000000	        0.0000000000	       -0.0000000000	        0.2000000000	        0.0000000000	       -0.9030000000	       -0.0000000000	       -0.0000000000	        0.0000000000	        6.6337848600	      448.2330480977	      133.4022474953	        0.2000000000	        0.0000000000	       -0.3000000000	      -97.5259275160	        7.1145852001	      -14.2852290619	        0.0427300821	      510.0553986353	     -100.9001269063	        0.2000000000	       -0.0000000000	        0.3030000000	      -68.8023263509	        9.3049825039	       47.0593772810	
        1.2350000000	       -0.0000000000	        0.0000000000	       -0.0000000000	        0.2000000000	        0.0000000000	       -0.9030000000	       -0.0000000000	       -0.0000000000	        0.0000000000	        5.9163421507	      438.3837391832	      132.1572087968	        0.2000000000	        0.0000000000	       -0.3000000000	      -95.5514293166	        6.9096913908	      -13.9516648712	       -1.4207929417	      515.4557586314	     -102.7212393362	        0.2000000000	       -0.0000000000	        0.3030000000	      -69.8364671223	        9.2229138295	       47.6955690544	
        1.2360000000	       -0.0000000000	        0.0000000000	       -0.0000000000	        0.2000000000	        0.0000000000	       -0.9030000000	       -0.0000000000	       -0.0000000000	        0.0000000000	        5.2078999144	      428.3576886915	      130.8558577228	        0.2000000000	        0.0000000000	       -0.3000000000	      -93.5353019797	        6.7015625442	      -13.6141675009	       -2.9128230521	      520.6699321038	     -104.6045319187	        0.2000000000	       -0.0000000000	        0.3030000000	      -70.8508681816	        9.1433574290	       48.3134894390	
        1.2370000000	       -0.0000000000	        0.0000000000	       -0.0000000000	        0.2000000000	        0.0000000000	       -0.9030000000	       -0.0000000000	       -0.0000000000	        0.0000000000	        4.5082421364	      418.1588425280	      129.4903774119	        0.2000000000	        0.0000000000	       -0.3000000000	      -91.4773200792	        6.4899647067	      -13.2732502028	       -4.4234375764	      525.7102959606	     -106.5313543570	        0.2000000000	       -0.0000000000	        0.3030000000	      -71.8483581723	        9.0658294715	       48.9142782654	
        1.2380000000	       -0.0000000000	        0.0000000000	       -0.0000000000	        0.2000000000	        0.0000000000	       -0.9030000000	       -0.0000000000	       -0.0000000000	       -0.0000000000	        3.8168667481	      407.7931631118	      128.0511321438	        0.2000000000	        0.0000000000	       -0.3000000000	      -89.3769453565	        6.2749370019	      -12.9297291494	       -5.9435438130	      530.5904908365	     -108.4825709435	        0.2000000000	       -0.0000000000	        0.3030000000	      -72.8317184833	        8.9898376587	       49.4994365425	
        1.2390000000	       -0.0000000000	        0.0000000000	       -0.0000000000	        0.2000000000	        0.0000000000	       -0.9030000000	        0.0000000000	        0.0000000000	       -0.0000000000	        3.1335992068	      397.2658906755	      126.5281840248	        0.2000000000	        0.0000000000	       -0.3000000000	      -87.2337770192	        6.0566940813	      -12.5844366415	       -7.4640804279	      535.3271455397	     -110.4397096107	        0.2000000000	       -0.0000000000	        0.3030000000	      -73.8033150893	        8.9150133122	       50.0707748823	
        1.2400000000	       -0.0000000000	        0.0000000000	        0.0000000000	        0.2000000000	        0.0000000000	       -0.9030000000	        0.0000000000	        0.0000000000	       -0.0000000000	        2.4589423411	      386.5816138721	      124.9124701993	        0.2000000000	        0.0000000000	       -0.3000000000	      -85.0480973576	        5.8354730802	      -12.2378745021	       -8.9753172853	      539.9395734454	     -112.3852926318	        0.2000000000	       -0.0000000000	        0.3030000000	      -74.7652749247	        8.8412404534	       50.6305512865	
        1.2410000000	       -0.0000000000	        0.0000000000	        0.0000000000	        0.2000000000	        0.0000000000	       -0.9030000000	        0.0000000000	        0.0000000000	       -0.0000000000	        1.7940089965	      375.7454003823	      123.1958352984	        0.2000000000	        0.0000000000	       -0.3000000000	      -82.8211765880	        5.6114552478	      -11.8900533070	      -10.4671982669	      544.4484504193	     -114.3026697831	        0.2000000000	       -0.0000000000	        0.3030000000	      -75.7198557774	        8.7686838463	       51.1816127893	
        1.2420000000	       -0.0000000000	        0.0000000000	        0.0000000000	        0.2000000000	        0.0000000000	       -0.9030000000	        0.0000000000	        0.0000000000	       -0.0000000000	        1.1401882281	      364.7625022660	      121.3707694954	        0.2000000000	        0.0000000000	       -0.3000000000	      -80.5554466517	        5.3847922896	      -11.5407520115	      -11.9301685602	      548.8752078353	     -116.1765605447	        0.2000000000	       -0.0000000000	        0.3030000000	      -76.6693601461	        8.6977602490	       51.7272655345	
        1.2430000000	       -0.0000000000	        0.0000000000	        0.0000000000	        0.2000000000	        0.0000000000	       -0.9030000000	        0.0000000000	        0.0000000000	       -0.0000000000	        0.4989078758	      353.6373441847	      119.4304219140	        0.2000000000	        0.0000000000	       -0.3000000000	      -78.2543116310	        5.1556676948	      -11.1899102704	      -13.3555600617	      553.2425138480	     -117.9940625132	        0.2000000000	       -0.0000000000	        0.3030000000	      -77.6158421971	        8.6290519980	       52.2709320190	
        1.2440000000	        0.0000000000	        0.0000000000	        0.0000000000	        0.2000000000	        0.0000000000	       -0.9030000000	        0.0000000000	        0.0000000000	       -0.0000000000	       -0.1282069051	      342.3744679647	      117.3682882753	        0.2000000000	        0.0000000000	       -0.3000000000	      -75.9216810750	        4.9244231768	      -10.8377669119	      -14.7354663169	      557.5749808515	     -119.7449838539	        0.2000000000	       -0.0000000000	        0.3030000000	      -78.5611317154	        8.5632605502	       52.8157270406	
